<svg xmlns="http://www.w3.org/2000/svg" xmlns:xlink="http://www.w3.org/1999/xlink" viewBox="0,0,256,256" width="48px" height="48px"><g fill="#8c9eab" fill-rule="nonzero" stroke="none" stroke-width="1" stroke-linecap="butt" stroke-linejoin="miter" stroke-miterlimit="10" stroke-dasharray="" stroke-dashoffset="0" font-family="none" font-weight="none" font-size="none" text-anchor="none" style="mix-blend-mode: normal"><g transform="scale(10.66667,10.66667)"><path d="M12,23v0c-4.418,0 -8,-3.582 -8,-8v-7c0,-3.866 3.134,-7 7,-7h2c3.866,0 7,3.134 7,7v7c0,4.418 -3.582,8 -8,8z" opacity="0.35"></path><path d="M12,1v8.871c0,1.199 -1.056,2.147 -2.245,1.989c-4.265,-0.568 -5.755,-2.721 -5.755,-3.86c0,-1.94 0.78,-3.68 2.05,-4.95c1.27,-1.27 3.01,-2.05 4.95,-2.05z"></path></g></g></svg>