<svg xmlns="http://www.w3.org/2000/svg" xmlns:xlink="http://www.w3.org/1999/xlink" viewBox="0,0,256,256" width="48px" height="48px"><g fill="#8c9eab" fill-rule="nonzero" stroke="none" stroke-width="1" stroke-linecap="butt" stroke-linejoin="miter" stroke-miterlimit="10" stroke-dasharray="" stroke-dashoffset="0" font-family="none" font-weight="none" font-size="none" text-anchor="none" style="mix-blend-mode: normal"><g transform="scale(5.33333,5.33333)"><path d="M13.709,21.771l4.653,4.653c0.651,0.651 0.24,1.768 -0.651,1.867l-5.289,0.594c-0.948,0.099 -1.739,-0.693 -1.626,-1.626l0.523,-4.624c0.127,-1.175 1.555,-1.699 2.39,-0.864z"></path><path d="M26.291,18.069l-4.653,-4.653c-0.651,-0.651 -0.24,-1.768 0.651,-1.867l5.289,-0.594c0.948,-0.099 1.739,0.693 1.626,1.626l-0.523,4.624c-0.127,1.175 -1.555,1.699 -2.39,0.864z"></path><path d="M38,6h-28c-3.314,0 -6,2.686 -6,6v18c0,3.314 2.686,6 6,6h28c3.314,0 6,-2.686 6,-6v-18c0,-3.314 -2.686,-6 -6,-6z" opacity="0.35"></path><path d="M42.279,41.56l1.308,-3.623c1.006,-2.786 -0.17,-5.888 -2.771,-7.306l-7.028,-3.833l-0.941,-0.34v0c-2.079,-0.751 -4.37,0.325 -5.121,2.404l-2.377,6.584c-1.126,3.117 0.488,6.556 3.605,7.681l5.643,2.038c3.118,1.126 6.556,-0.488 7.682,-3.605z"></path><path d="M32.294,37.855l-5.519,3.901l-8.26,-8.222c-0.634,-0.665 -0.608,-1.719 0.056,-2.353v0c1.521,-1.452 3.891,-1.529 5.505,-0.183z"></path><path d="M32.429,30.561l-4.703,-1.698l3.227,-8.935c0.469,-1.298 1.903,-1.971 3.2,-1.502v0c1.298,0.469 1.971,1.903 1.502,3.2z"></path><rect x="-6.95863" y="26.30761" transform="rotate(-45.001)" width="14.029" height="4"></rect></g></g></svg>