<svg xmlns="http://www.w3.org/2000/svg" xmlns:xlink="http://www.w3.org/1999/xlink" viewBox="0,0,256,256" width="48px" height="48px"><g fill="#8c9eab" fill-rule="nonzero" stroke="none" stroke-width="1" stroke-linecap="butt" stroke-linejoin="miter" stroke-miterlimit="10" stroke-dasharray="" stroke-dashoffset="0" font-family="none" font-weight="none" font-size="none" text-anchor="none" style="mix-blend-mode: normal"><g transform="scale(10.66667,10.66667)"><path d="M12,4.987c-6.729,0 -12,3.407 -12,7.757c0,3.907 4.258,7.044 10,7.644v1.681c0,0.713 0.862,1.07 1.366,0.566l3.069,-3.069c0.312,-0.312 0.312,-0.819 0,-1.131l-3.069,-3.069c-0.504,-0.504 -1.366,-0.147 -1.366,0.565v1.443c-4.209,-0.531 -7,-2.677 -7,-4.631c0,-2.25 3.696,-4.757 9,-4.757c5.304,0 9,2.507 9,4.757c0,1.475 -1.405,2.559 -2.243,3.074c-0.706,0.434 -0.926,1.358 -0.492,2.063c0.435,0.707 1.358,0.926 2.063,0.492c2.368,-1.455 3.672,-3.454 3.672,-5.628c0,-4.35 -5.271,-7.757 -12,-7.757z" opacity="0.35"></path><path d="M12,14c-0.829,0 -1.5,-0.671 -1.5,-1.5v-10c0,-0.829 0.671,-1.5 1.5,-1.5c0.829,0 1.5,0.671 1.5,1.5v10c0,0.829 -0.671,1.5 -1.5,1.5z"></path></g></g></svg>