<svg xmlns="http://www.w3.org/2000/svg" xmlns:xlink="http://www.w3.org/1999/xlink" viewBox="0,0,256,256" width="48px" height="48px"><g fill="#8c9eab" fill-rule="nonzero" stroke="none" stroke-width="1" stroke-linecap="butt" stroke-linejoin="miter" stroke-miterlimit="10" stroke-dasharray="" stroke-dashoffset="0" font-family="none" font-weight="none" font-size="none" text-anchor="none" style="mix-blend-mode: normal"><g transform="scale(10.66667,10.66667)"><path d="M12,23v0c-4.418,0 -8,-3.582 -8,-8v-7c0,-3.866 3.134,-7 7,-7h2c3.866,0 7,3.134 7,7v7c0,4.418 -3.582,8 -8,8z" opacity="0.35"></path><path d="M12,12c-0.553,0 -1,-0.448 -1,-1v-5c0,-0.552 0.447,-1 1,-1c0.553,0 1,0.448 1,1v5c0,0.552 -0.447,1 -1,1z"></path><path d="M9.861,10h4.278c0.427,0 0.658,0.501 0.38,0.825l-2.139,2.495c-0.2,0.233 -0.56,0.233 -0.759,0l-2.139,-2.494c-0.279,-0.325 -0.048,-0.826 0.379,-0.826z"></path><path d="M14.139,7h-4.278c-0.427,0 -0.658,-0.501 -0.38,-0.825l2.139,-2.495c0.2,-0.233 0.56,-0.233 0.759,0l2.139,2.494c0.279,0.325 0.048,0.826 -0.379,0.826z"></path></g></g></svg>